<?xml version="1.0" standalone="no"?><!DOCTYPE svg PUBLIC "-//W3C//DTD SVG 1.1//EN"
        "http://www.w3.org/Graphics/SVG/1.1/DTD/svg11.dtd">
<svg class="icon" width="32px" height="32.00px"
     viewBox="0 0 1024 1024" version="1.1"
     fill="#7f7f7f"
     xmlns="http://www.w3.org/2000/svg">
    <path d="M508.325 342.477c-95.614 0-173.188 77.574-173.188 173.188 0 95.615 77.574 173.188 173.188 173.188 95.614 0 173.188-77.573 173.188-173.188 0-95.614-77.574-173.188-173.188-173.188z m81.633 254.821c-21.83 21.83-50.784 33.826-81.633 33.826-30.85 0-59.804-11.997-81.633-33.826-21.829-21.829-33.826-50.784-33.826-81.633 0-30.849 11.997-59.804 33.826-81.633 21.829-21.829 50.784-33.825 81.633-33.825 30.849 0 59.804 11.996 81.633 33.825 21.829 21.83 33.826 50.784 33.826 81.633 0 30.85-11.997 59.804-33.826 81.633z m351.878-178.96h-85.421c-7.848-28.234-18.943-55.024-33.014-80.01l60.345-60.345c11.005-11.005 11.005-29.045 0-40.14l-97.599-97.509a28.357 28.357 0 0 0-20.024-8.298 28.357 28.357 0 0 0-20.025 8.298l-60.346 60.345c-24.986-14.071-51.776-25.166-80.009-33.014V82.154c0-15.605-12.809-28.324-28.323-28.324H439.41c-15.605 0-28.323 12.81-28.323 28.324v85.421c-28.233 7.848-55.023 18.943-80.01 33.014l-60.345-60.345a28.357 28.357 0 0 0-20.024-8.299 28.357 28.357 0 0 0-20.025 8.299l-97.69 97.599c-11.004 11.004-11.004 29.045 0 40.14l60.346 60.345c-14.072 24.986-25.166 51.776-33.014 80.01H74.813c-15.514 0-28.323 12.808-28.323 28.413V584.67c0 15.605 12.809 28.323 28.323 28.323h85.422c7.847 28.234 18.942 55.024 33.014 80.01l-60.345 60.345c-11.005 11.005-11.005 29.045 0 40.14l97.598 97.508a28.357 28.357 0 0 0 20.025 8.3 28.357 28.357 0 0 0 20.025-8.3l60.345-60.345c24.986 14.072 51.776 25.167 80.01 33.014v85.422c0 15.605 12.808 28.323 28.323 28.323h137.92c15.604 0 28.323-12.809 28.323-28.323v-85.422c28.233-7.847 55.023-18.942 80.009-33.014l60.345 60.346a28.357 28.357 0 0 0 20.025 8.298 28.357 28.357 0 0 0 20.025-8.299l97.779-97.508c11.005-11.005 11.005-29.045 0-40.14l-60.345-60.345c14.071-24.986 25.166-51.776 33.014-80.01h85.421c15.605 0 28.324-12.808 28.324-28.323V446.75c0.09-15.604-12.629-28.413-28.234-28.413zM912.43 555.263H812.486L800.67 597.48c-6.585 23.723-15.966 46.364-27.692 67.2l-21.558 38.156 31.03 31.03 39.598 39.598-56.016 56.016-39.598-39.6-31.03-31.029-38.155 21.559c-20.837 11.726-43.478 21.107-67.201 27.692l-42.215 11.816v99.854h-79.197v-99.944l-42.215-11.816c-23.723-6.585-46.364-15.966-67.2-27.693l-38.156-21.558-31.03 31.03-39.598 39.598-56.016-56.015 39.6-39.599 31.029-31.03-21.559-38.155c-11.726-20.837-21.107-43.477-27.692-67.2l-11.816-42.215H104.219v-79.198h99.944l11.817-42.214c6.584-23.723 15.965-46.364 27.692-67.2l21.558-38.156-31.03-31.03-39.598-39.599 56.015-56.015 39.6 39.599 31.029 31.03 38.155-21.56c20.837-11.725 43.478-21.106 67.2-27.691l42.215-11.817V111.56h79.198V211.504l42.214 11.816c23.724 6.585 46.364 15.966 67.201 27.692l38.156 21.559 31.029-31.03 39.599-39.599 56.015 56.016-39.598 39.599-31.03 31.03 21.558 38.155c11.727 20.836 21.108 43.477 27.692 67.2l11.817 42.215h99.763z"/>
</svg>