<?xml version="1.0" standalone="no"?><!DOCTYPE svg PUBLIC "-//W3C//DTD SVG 1.1//EN"
        "http://www.w3.org/Graphics/SVG/1.1/DTD/svg11.dtd">
<svg class="icon" viewBox="0 0 1024 1024"
     version="1.1" xmlns="http://www.w3.org/2000/svg"
     fill="#DCDCDC"
     width="32" height="32">
    <path d="M512 170.666667a128 128 0 1 0 0 256 128 128 0 0 0 0-256z m0-85.333334a213.333333 213.333333 0 1 1-0.042667 426.709334A213.333333 213.333333 0 0 1 512 85.333333z m170.666667 512a213.333333 213.333333 0 0 1 213.333333 213.333334v85.333333a42.666667 42.666667 0 0 1-85.333333 0v-85.333333a128 128 0 0 0-128-128H341.333333a128 128 0 0 0-128 128v85.333333a42.666667 42.666667 0 0 1-85.333333 0v-85.333333a213.333333 213.333333 0 0 1 213.333333-213.333334h341.333334z">
    </path>
</svg>