<?xml version="1.0" standalone="no"?>
<!DOCTYPE svg PUBLIC "-//W3C//DTD SVG 1.1//EN"
        "http://www.w3.org/Graphics/SVG/1.1/DTD/svg11.dtd">
<svg class="icon" width="32px" height="32.00px"
     viewBox="0 0 1024 1024" version="1.1"
     fill="#7F7F7F"
     xmlns="http://www.w3.org/2000/svg">
    <path d="M577.574 512l343.643-343.696a45.008 45.008 0 0 0 0-63.3l-1.885-1.842a44.997 44.997 0 0 0-63.288 0L512.348 447.29 168.662 103.162a45.008 45.008 0 0 0-63.3 0l-1.874 1.874a44.165 44.165 0 0 0 0 63.3L447.174 512 103.488 855.686a44.987 44.987 0 0 0 0 63.299l1.875 1.874a45.008 45.008 0 0 0 63.299 0l343.686-343.685 343.696 343.685a44.997 44.997 0 0 0 63.288 0l1.885-1.874a45.008 45.008 0 0 0 0-63.3z"/>
</svg>